<svg id="Capa_1" enable-background="new 0 0 512 512" height="512" viewBox="0 0 512 512" width="512" xmlns="http://www.w3.org/2000/svg"><g><g><path d="m256 459.745c-75.141 0-136.055-60.914-136.055-136.055v-108.176c0-75.141 60.914-136.055 136.055-136.055 75.141 0 136.055 60.914 136.055 136.055v108.176c0 75.141-60.914 136.055-136.055 136.055z" fill="#e19974"/><path d="m256 79.459c-5.071 0-10.074.286-15 .827 68.082 7.468 121.055 65.157 121.055 135.228v108.176c0 70.071-52.973 127.76-121.055 135.228 4.927.54 9.929.827 15 .827 75.141 0 136.055-60.914 136.055-136.055v-108.176c0-75.142-60.914-136.055-136.055-136.055z" fill="#dc8758"/><g><g><circle cx="441" cy="71" fill="#8795de" r="63.5"/><path d="m441 7.5c-5.169 0-10.189.633-15 1.798 27.828 6.742 48.5 31.801 48.5 61.702s-20.672 54.959-48.5 61.702c4.811 1.166 9.831 1.798 15 1.798 35.07 0 63.5-28.43 63.5-63.5s-28.43-63.5-63.5-63.5z" fill="#6c7fd8"/><circle cx="441" cy="71" fill="#fff" r="30.374"/></g><g><circle cx="71" cy="71" fill="#fee97d" r="63.5"/><path d="m71 7.5c-5.169 0-10.189.633-15 1.798 27.828 6.743 48.5 31.801 48.5 61.702s-20.672 54.959-48.5 61.702c4.811 1.166 9.831 1.798 15 1.798 35.07 0 63.5-28.43 63.5-63.5s-28.43-63.5-63.5-63.5z" fill="#f4da6e"/><path d="m40.602 67.04 26.438-26.438c2.187-2.187 5.733-2.187 7.92 0l26.438 26.438c2.187 2.187 2.187 5.733 0 7.92l-26.438 26.438c-2.187 2.187-5.733 2.187-7.92 0l-26.438-26.438c-2.187-2.187-2.187-5.733 0-7.92z" fill="#fff"/></g><g><circle cx="441" cy="311" fill="#c9f6b0" r="63.5"/><path d="m441 247.5c-5.169 0-10.189.633-15 1.798 27.828 6.742 48.5 31.801 48.5 61.702s-20.672 54.959-48.5 61.702c4.811 1.166 9.831 1.798 15 1.798 35.07 0 63.5-28.43 63.5-63.5s-28.43-63.5-63.5-63.5z" fill="#9be69d"/><path d="m456.294 330.875h-30.587c-2.53 0-4.581-2.051-4.581-4.581v-30.587c0-2.53 2.051-4.581 4.581-4.581h30.587c2.53 0 4.581 2.051 4.581 4.581v30.587c0 2.53-2.051 4.581-4.581 4.581z" fill="#fff"/></g><g><circle cx="71" cy="311" fill="#f58a97" r="63.5"/><path d="m71 247.5c-5.169 0-10.189.633-15 1.798 27.828 6.742 48.5 31.801 48.5 61.702s-20.672 54.959-48.5 61.702c4.811 1.166 9.831 1.798 15 1.798 35.07 0 63.5-28.43 63.5-63.5s-28.43-63.5-63.5-63.5z" fill="#f07281"/><path d="m91.91 329.539h-41.82c-2.136 0-3.491-2.289-2.463-4.162l20.91-38.084c1.067-1.943 3.859-1.943 4.926 0l20.91 38.084c1.028 1.872-.327 4.162-2.463 4.162z" fill="#fff"/></g></g><g><g><path d="m441.818 502v-51.727c0-25.763-16.447-48.651-40.865-56.867l-50.431-16.969-12.151 1.861-16.867-11.625-7.382-2.484c-8.139-2.739-13.622-10.368-13.622-18.956v-32.568h-89v32.568c0 8.588-5.482 16.217-13.622 18.956l-7.382 2.484-13.218 7.827-15.8 1.937-50.431 16.969c-24.418 8.216-40.865 31.104-40.865 56.867v51.727c0 5.523 4.477 10 10 10h142.352l33.282-15 33.65 15h142.352c5.523 0 10-4.477 10-10z" fill="#7a6d79"/><path d="m289.466 512 23.624-107.158h-114.547l23.991 107.158z" fill="#f9f7f8"/><g><path d="m400.953 393.406-50.431-16.969-12.151 1.861-16.867-11.625-7.382-2.484c-8.139-2.739-13.622-10.368-13.622-18.956v-32.568h-30v47.568c0 8.588 5.482 16.217 13.622 18.956l86.831 29.217c24.418 8.216 40.865 31.104 40.865 56.867v46.727h20c5.523 0 10-4.477 10-10v-51.727c0-25.763-16.447-48.651-40.865-56.867z" fill="#685e68"/></g><path d="m179.71 370.302c6.422 36.325 38.123 63.923 76.29 63.923s69.868-27.599 76.29-63.923l-18.168-6.113c-8.139-2.739-13.622-10.368-13.622-18.956v-32.568h-89v32.568c0 8.588-5.482 16.217-13.622 18.956z" fill="#ffdfcf"/><path d="m284.122 379.189 40.46 13.614c3.658-6.945 6.296-14.511 7.709-22.5l-18.168-6.113c-8.117-2.733-13.624-10.363-13.622-18.956v-32.568h-30v47.568c-.001 8.587 5.481 16.216 13.621 18.955z" fill="#ffcebf"/><g><path d="m361.899 194.68v42.678c0 58.611-47.615 106.101-106.273 105.898-58.528-.203-105.525-48.52-105.525-107.048v-41.528c25.413-2.655 56.478-8.192 90.63-19.586 20.99-7.003 39.524-15.01 55.504-22.995 2.789-1.394 6.155-.781 8.261 1.519 5.158 5.633 11.363 11.653 18.745 17.603 14.049 11.323 27.747 18.673 38.658 23.459z" fill="#ffdfcf"/></g><path d="m301.909 301.245c-34.132 35.381-82.638 32.657-90.403 32.096 13.406 6.304 28.342 9.86 44.119 9.915 58.658.203 106.273-47.287 106.273-105.898 0-18.826 0-23.852 0-42.678-10.911-4.786-24.609-12.136-38.659-23.46-7.384-5.951-13.591-11.973-18.749-17.608-2.103-2.297-5.464-2.909-8.249-1.517-5.057 2.527-10.372 5.056-15.938 7.556 3.841 3.803 8.135 7.7 12.936 11.569 11.338 9.138 22.447 15.689 32.047 20.392 4.271 2.092 7.174 6.22 7.661 10.951.965 9.372 1.189 21.307-1.049 34.795-1.771 10.678-7.041 40.1-29.989 63.887z" fill="#ffcebf"/><path d="m369.784 239.222h-7.885v-44.542h7.885c12.3 0 22.271 9.971 22.271 22.271 0 12.3-9.971 22.271-22.271 22.271z" fill="#ffdfcf"/><path d="m142.216 239.222h7.885v-44.542h-7.885c-12.3 0-22.271 9.971-22.271 22.271 0 12.3 9.971 22.271 22.271 22.271z" fill="#ffcebf"/><g><path d="m337.7 504.5 16.233-29.41c1.02-1.848 1.152-4.058.358-6.014l-14.561-35.89c-1.076-2.653-.429-5.694 1.635-7.678l16.876-16.222c2.01-1.932 2.682-4.873 1.71-7.486l-9.43-25.363-29.018-9.764-32.037 145.327h44.534z" fill="#a79ba7"/><path d="m316.354 390.034 44.008 14.808c.088-1.013-.042-2.051-.41-3.042l-9.43-25.363-29.018-9.764z" fill="#918291"/><path d="m222.534 512-32.038-145.327-29.018 9.764-9.43 25.363c-.972 2.613-.3 5.554 1.71 7.486l16.876 16.222c2.064 1.984 2.712 5.025 1.636 7.678l-14.561 35.89c-.794 1.956-.662 4.166.358 6.014l16.233 29.41 3.7 7.5z" fill="#a79ba7"/></g></g></g></g><path d="m61.737 106.702c2.474 2.475 5.764 3.837 9.263 3.837s6.789-1.362 9.263-3.837l26.438-26.438c2.475-2.474 3.837-5.764 3.837-9.263s-1.362-6.789-3.837-9.263l-26.438-26.44c-2.474-2.475-5.764-3.837-9.263-3.837s-6.789 1.362-9.263 3.837l-26.439 26.439c-2.475 2.474-3.837 5.764-3.837 9.263s1.362 6.789 3.837 9.263zm9.263-59.454 23.752 23.752-23.752 23.752-23.752-23.752zm149.64 3.731h70.721c4.142 0 7.5-3.358 7.5-7.5s-3.358-7.5-7.5-7.5h-70.721c-4.142 0-7.5 3.358-7.5 7.5s3.358 7.5 7.5 7.5zm220.36 91.021c39.149 0 71-31.851 71-71s-31.851-71-71-71-71 31.851-71 71 31.851 71 71 71zm0-127c30.878 0 56 25.122 56 56s-25.122 56-56 56-56-25.122-56-56 25.122-56 56-56zm-7.5 149.5v53c0 4.142 3.358 7.5 7.5 7.5s7.5-3.358 7.5-7.5v-53c0-4.142-3.358-7.5-7.5-7.5s-7.5 3.358-7.5 7.5zm7.5-55.626c20.883 0 37.874-16.99 37.874-37.874s-16.991-37.874-37.874-37.874-37.874 16.991-37.874 37.874 16.991 37.874 37.874 37.874zm0-60.748c12.612 0 22.874 10.261 22.874 22.874s-10.262 22.874-22.874 22.874-22.874-10.262-22.874-22.874 10.262-22.874 22.874-22.874zm-233.302 192.174c4.142 0 7.5-3.358 7.5-7.5v-17.088c0-4.142-3.358-7.5-7.5-7.5s-7.5 3.358-7.5 7.5v17.088c0 4.142 3.358 7.5 7.5 7.5zm233.302-.3c-15.459 0-29.769 4.981-41.44 13.402v-37.892c0-38.341-14.933-74.389-42.048-101.504-6.069-6.066-12.714-11.618-19.751-16.501-3.404-2.363-8.077-1.517-10.438 1.886-2.362 3.403-1.517 8.076 1.886 10.438 6.305 4.375 12.26 9.351 17.697 14.786 18.107 18.107 30.143 40.663 35.095 65.201-3.731-1.686-7.865-2.633-12.218-2.633h-6.249c-12.777-5.745-24.749-13.063-35.589-21.8-6.362-5.127-12.391-10.789-17.919-16.828-4.338-4.738-11.389-6.04-17.145-3.164-17.574 8.782-35.919 16.382-54.524 22.59-30.426 10.151-63.793 19.202-96.142 19.202-4.343 0-8.468.943-12.191 2.621 11.944-58.608 63.89-102.844 125.976-102.844 15.081 0 29.845 2.585 43.883 7.683 3.893 1.413 8.195-.596 9.609-4.489s-.596-8.196-4.489-9.609c-15.684-5.697-32.171-8.585-49.003-8.585-79.159 0-143.56 64.396-143.56 143.55v37.893c-11.671-8.422-25.981-13.403-41.44-13.403-39.149 0-71 31.851-71 71 0 9.632 1.897 18.976 5.639 27.771 1.621 3.811 6.024 5.587 9.837 3.965 3.812-1.621 5.587-6.026 3.965-9.837-2.946-6.928-4.441-14.296-4.441-21.899 0-30.878 25.122-56 56-56s56 25.122 56 56-25.122 56-56 56c-11.854 0-23.181-3.656-32.754-10.572-3.358-2.425-8.046-1.67-10.472 1.688-2.425 3.357-1.67 8.046 1.688 10.472 12.145 8.774 26.509 13.412 41.538 13.412 18.106 0 34.643-6.823 47.198-18.019 1.697 5.797 3.75 11.487 6.17 17.034l-15.708 5.286c-27.501 9.246-45.979 34.953-45.979 63.969v54.23c0 4.142 3.358 7.5 7.5 7.5s7.5-3.358 7.5-7.5v-54.23c0-22.566 14.371-42.56 35.762-49.751l35.526-11.955-3.949 10.623c-2.014 5.416-.624 11.503 3.542 15.507l16.631 15.987-14.434 35.577c-1.651 4.071-1.381 8.612.742 12.458l16.233 29.41c2.022 3.666 6.621 4.912 10.19 2.941 3.626-2.001 4.943-6.564 2.941-10.19l-16.118-29.201 14.471-35.669c2.244-5.527.914-11.771-3.387-15.906l-16.639-15.994 8.067-21.698 17.711-5.96 28.586 129.667c.889 4.076 4.976 6.583 8.939 5.709 4.045-.892 6.601-4.894 5.709-8.939l-16.179-73.387c13.107 7.969 28.175 12.232 43.974 12.232s30.867-4.263 43.974-12.232l-16.179 73.387c-.892 4.045 1.665 8.047 5.709 8.939 3.943.87 8.048-1.622 8.939-5.709l28.586-129.667 17.71 5.96 8.067 21.698-16.64 15.995c-4.3 4.135-5.63 10.378-3.387 15.905l14.471 35.669-16.118 29.201c-2.002 3.626-.685 8.189 2.941 10.19 3.562 1.966 8.169.724 10.19-2.941l16.234-29.41c2.123-3.846 2.393-8.386.741-12.458l-14.434-35.577 16.631-15.987c4.166-4.004 5.556-10.091 3.542-15.507l-3.949-10.623 35.528 11.956c21.389 7.191 35.76 27.185 35.76 49.751v54.23c0 4.142 3.358 7.5 7.5 7.5s7.5-3.358 7.5-7.5v-54.23c0-29.016-18.478-54.723-45.978-63.968l-15.71-5.287c2.42-5.547 4.473-11.237 6.17-17.034 12.56 11.195 29.097 18.018 47.203 18.018 39.149 0 71-31.851 71-71s-31.851-71-71-71zm-71.601-37.819c8.25-.274 15.156 6.532 15.156 14.771 0 8.248-6.874 15.01-15.156 14.771zm-211.798-.797c29.088-3.498 57.82-9.94 85.503-19.176 19.152-6.389 38.035-14.203 56.134-23.226 5.962 6.482 12.452 12.562 19.295 18.078 10.992 8.859 23.037 16.396 35.866 22.447v37.852c0 26.348-10.278 51.101-28.941 69.7-18.699 18.635-43.274 28.79-69.806 28.699-54.065-.187-98.051-44.844-98.051-99.548zm-15 .797v29.542c-8.277.247-15.156-6.512-15.156-14.771 0-8.275 6.881-14.991 15.156-14.771zm-3.957 174.03c-3.75-8.361-6.589-17.086-8.462-26.046 7.459-11.235 11.818-24.698 11.818-39.165 0-16.157-5.436-31.063-14.56-43.008v-25.212c4.742 2.744 9.901 4.024 15.645 3.942 3.605 39.712 27.409 73.677 60.915 91.241v7.267c0 5.375-3.421 10.138-8.512 11.852-13.73 4.62-42.482 14.277-56.844 19.129zm166.366 30.441c-13.154 12.952-30.47 20.078-49.01 20.078s-35.856-7.126-49.01-20.077l-7.72-35.017c11.829-3.764 20.095-14.54 19.73-27.155 11.484 4.022 23.796 6.232 36.6 6.276 12.902.045 25.539-2.068 37.4-6.151-.432 12.264 7.941 23.586 19.73 27.03zm79.55-138.66c-9.124 11.945-14.56 26.851-14.56 43.008 0 14.467 4.359 27.93 11.818 39.165-1.874 8.96-4.712 17.685-8.462 26.046-16.077-5.424-41.502-13.967-56.843-19.129-5.092-1.713-8.513-6.477-8.513-11.852v-7.044c10.212-5.281 19.667-12.154 28.046-20.504 19.281-19.215 30.79-44.131 32.967-70.96 5.537.1 11.018-1.317 15.547-3.942zm56.44 99.008c-30.878 0-56-25.122-56-56s25.122-56 56-56 56 25.122 56 56-25.122 56-56 56zm15.294-83.375h-30.588c-6.662 0-12.081 5.419-12.081 12.081v30.588c0 6.662 5.419 12.081 12.081 12.081h30.588c6.662 0 12.081-5.419 12.081-12.081v-30.588c0-6.662-5.419-12.081-12.081-12.081zm-2.919 39.75h-24.75v-24.75h24.75zm-403.285 13.664h41.82c3.681 0 6.998-1.892 8.873-5.06s1.936-6.986.164-10.212l-20.91-38.083c-1.811-3.299-5.274-5.348-9.037-5.348s-7.226 2.049-9.037 5.348l-20.91 38.083c-1.771 3.227-1.71 7.045.164 10.213 1.875 3.167 5.192 5.059 8.873 5.059zm20.91-38.648 12.984 23.648h-25.968zm-7.5-133.891v53c0 4.142 3.358 7.5 7.5 7.5s7.5-3.358 7.5-7.5v-53c0-4.142-3.358-7.5-7.5-7.5s-7.5 3.358-7.5 7.5zm173.231 126.921c3.308 2.345 10.107 6.167 19.276 6.167.391 0 .787-.007 1.187-.021 8.205-.294 14.361-3.506 18.082-6.149 3.377-2.399 4.169-7.082 1.771-10.458-2.399-3.377-7.082-4.168-10.458-1.771-1.678 1.192-5.2 3.218-9.931 3.388-5.369.184-9.348-2.043-11.251-3.392-3.379-2.396-8.06-1.599-10.456 1.781-2.397 3.378-1.599 8.059 1.78 10.455zm-165.731-149.421c39.149 0 71-31.851 71-71s-31.851-71-71-71-71 31.851-71 71 31.851 71 71 71zm0-127c30.878 0 56 25.122 56 56s-25.122 56-56 56-56-25.122-56-56 25.122-56 56-56zm233.302 225.3c4.142 0 7.5-3.358 7.5-7.5v-17.088c0-4.142-3.358-7.5-7.5-7.5s-7.5 3.358-7.5 7.5v17.088c0 4.142 3.358 7.5 7.5 7.5z"/></g></svg>