<?xml version="1.0" encoding="UTF-8"?>
<!DOCTYPE svg PUBLIC "-//W3C//DTD SVG 1.1//EN" "http://www.w3.org/Graphics/SVG/1.1/DTD/svg11.dtd">
<!-- Creator: CorelDRAW 2019 (64-Bit) -->
<svg xmlns="http://www.w3.org/2000/svg" xml:space="preserve" width="180.569mm" height="56.8047mm" version="1.1" shape-rendering="geometricPrecision" text-rendering="geometricPrecision" image-rendering="optimizeQuality" fill-rule="evenodd" clip-rule="evenodd"
viewBox="0 0 5478.64 1723.51"
 xmlns:xlink="http://www.w3.org/1999/xlink">
 <g id="Capa_x0020_1">
  <metadata id="CorelCorpID_0Corel-Layer"/>
  <g id="_2882608684544">
   <g>
    <path fill="#2A3B47" d="M1384.39 1113.59c-0.71,1.73 -2.19,3 -3.35,4.48 -133.99,131.11 -326.66,200.27 -536.23,251.61 -207.69,44.32 -459.6,198.91 -584.99,353.82 58.42,-231.64 221.19,-447.3 800.42,-599.14 -495.85,43.91 -758.31,252.74 -927.01,525.23 -15.88,-245.43 62.48,-483.88 890.84,-666.76 -441.3,59.2 -796.84,175.09 -990.7,397.85 8.85,-247.07 199.88,-448.13 987.56,-498.5 -381.31,-23.16 -673.34,36.27 -886.91,168.26 76.59,-164.68 263.6,-266.73 621.15,-272.05 258.38,11.78 415.8,-102.42 323.94,-185.56 548.97,-146.67 402.93,282.94 305.27,520.74z"/>
    <path fill="#008DF2" d="M328.23 317.65c-43.62,44.39 -96.33,75.66 -158.83,92.78 -12.06,-92.52 98.23,-146.67 165.9,-185.16 163.55,-77.45 315.92,-154.14 386.84,-225.27 -17.04,73.65 -33.28,123.71 -105.36,176.12 700.11,-72.09 1078.83,529.7 767.6,937.47 87.24,-228.37 -39.05,-411.59 -305.27,-520.74 -223.19,-112.15 -729.07,-133.34 -1076.01,121.48 -9.91,-74.36 0.79,-146.39 77.25,-205.41 96.46,-72.77 239.54,-130.9 247.86,-191.27z"/>
   </g>
   <path fill="#2A3B47" fill-rule="nonzero" d="M1668.92 830.87c0,-50.56 9.34,-100.15 28,-148.77 18.67,-48.62 45.9,-92.76 81.68,-132.44 35.78,-39.67 79.34,-71.37 130.69,-95.1 51.34,-23.73 109.68,-35.59 175.02,-35.59 77.79,0 145.27,16.72 202.44,50.17 57.18,33.45 99.77,77.01 127.77,130.69l-147.02 102.68c-12.45,-29.56 -28.98,-52.51 -49.59,-68.84 -20.62,-16.34 -43.18,-27.81 -67.68,-34.42 -24.5,-6.61 -48.03,-9.92 -70.59,-9.92 -36.56,0 -68.46,7.2 -95.68,21.59 -27.22,14.39 -49.78,33.65 -67.68,57.76 -17.89,24.11 -31.11,50.95 -39.67,80.51 -8.56,29.56 -12.84,59.12 -12.84,88.68 0,32.67 5.06,64.17 15.17,94.51 10.11,30.34 24.7,57.17 43.75,80.51 19.06,23.34 42.2,41.81 69.43,55.42 27.23,13.61 57.18,20.42 89.85,20.42 23.34,0 47.06,-3.89 71.18,-11.67 24.11,-7.78 46.48,-20.03 67.09,-36.76 20.61,-16.72 36.37,-38.7 47.26,-65.92l156.36 92.18c-16.34,40.45 -43.17,75.07 -80.51,103.85 -37.34,28.78 -79.54,50.76 -126.6,65.93 -47.06,15.17 -93.54,22.75 -139.44,22.75 -59.9,0 -114.93,-12.25 -165.11,-36.76 -50.17,-24.5 -93.35,-57.17 -129.52,-98.01 -36.17,-40.84 -64.17,-86.74 -84.01,-137.69 -19.84,-50.95 -29.76,-102.88 -29.76,-155.77zm829.62 204.39l0 -387.58 186.69 0 0 345.97c0,36.76 7.39,64.95 22.17,84.4 14.78,19.64 35.78,29.36 63.01,29.36 17.12,0 33.45,-2.92 49.01,-8.56 15.56,-5.64 30.73,-14.78 45.51,-27.62 14.78,-12.83 28,-29.36 39.67,-49.78l0 -373.78 186.69 0 0 398.67c0,18.47 2.92,31.31 8.75,38.51 5.83,7.2 16.14,11.67 30.92,13.23l0 155.19c-17.12,3.11 -32.09,5.45 -44.92,7 -12.84,1.56 -24.31,2.34 -34.42,2.34 -32.67,0 -58.73,-6.81 -78.18,-20.23 -19.45,-13.42 -31.5,-32.48 -36.17,-57.17l-3.5 -36.76c-28,39.87 -62.81,69.43 -104.43,88.29 -41.62,18.86 -88.09,28.2 -139.43,28.2 -62.23,0 -109.68,-19.64 -142.35,-58.93 -32.67,-39.09 -49.01,-96.07 -49.01,-170.75zm1125.99 -234.73c-45.12,0 -85.96,7.2 -122.52,21.59 -36.56,14.39 -63.01,35.59 -79.34,63.59l0 367.55 -186.69 0 0 -605.59 171.52 0 0 116.68c21,-41.23 48.23,-73.51 81.68,-96.85 33.45,-23.34 68.46,-35.4 105.02,-36.17 8.56,0 14.97,0 19.25,0 4.28,0 7.97,0.39 11.09,1.17l0 168.02zm312.71 464.4c-52.12,0 -103.07,-8.56 -152.85,-25.67 -49.79,-17.11 -91.79,-42.4 -126.02,-75.84l64.17 -117.85c37.34,27.22 73.71,47.84 109.1,61.84 35.39,14 68.65,21.01 99.76,21.01 24.11,0 42.78,-3.7 56.01,-11.09 13.22,-7.19 19.83,-18.67 19.83,-34.03 0,-11.47 -3.89,-20.61 -11.67,-27.03 -7.78,-6.61 -19.64,-12.45 -35.59,-17.89 -15.95,-5.25 -35.59,-11.08 -58.93,-17.11 -46.67,-15.36 -85.57,-30.34 -116.68,-44.92 -31.12,-14.58 -54.45,-32.28 -70.01,-53.48 -15.56,-21 -23.34,-48.42 -23.34,-82.07 0,-40.64 10.31,-76.23 30.92,-106.38 20.61,-30.34 49.98,-53.87 88.09,-70.79 38.12,-16.92 83.63,-25.28 136.52,-25.28 42,0 83.04,6.61 123.1,19.83 40.06,13.23 77.59,35.4 112.6,66.51l-72.34 116.68c-35,-24.11 -66.12,-41.62 -93.35,-52.5 -27.22,-10.89 -53.67,-16.34 -79.34,-16.34 -13.23,0 -25.28,1.55 -36.17,4.67 -10.89,2.92 -19.64,8.17 -26.25,15.36 -6.61,7.2 -9.92,16.53 -9.92,28 0,11.47 3.31,20.61 9.92,27.62 6.61,6.81 17.12,12.64 31.51,17.69 14.39,4.86 32.48,10.89 54.26,17.7 50.56,14.58 92.57,29.17 126.02,44.15 33.45,14.78 58.54,33.25 75.26,55.04 16.73,21.59 25.09,50.56 25.09,86.34 0,61.06 -22.36,108.91 -67.09,143.72 -44.73,34.81 -105.6,52.12 -182.61,52.12zm637.09 0c-52.12,0 -98.6,-8.36 -139.44,-25.28 -40.84,-16.92 -75.26,-39.86 -103.26,-69.04 -28,-29.17 -49.2,-62.42 -63.59,-99.96 -14.39,-37.53 -21.58,-77.01 -21.58,-118.43 0,-42.2 7.19,-82.07 21.58,-119.6 14.39,-37.53 35.59,-70.79 63.59,-99.96 28,-29.17 62.42,-52.12 103.26,-69.04 40.84,-16.92 87.32,-25.28 139.44,-25.28 52.12,0 98.4,8.36 138.85,25.28 40.45,16.92 74.68,39.87 102.68,69.04 28,29.17 49.4,62.43 64.17,99.96 14.78,37.53 22.17,77.4 22.17,119.6 0,41.42 -7.39,80.9 -22.17,118.43 -14.78,37.53 -36.17,70.79 -64.17,99.96 -28,29.17 -62.23,52.12 -102.68,69.04 -40.45,16.92 -86.73,25.28 -138.85,25.28zm-136.52 -312.71c0,30.92 6.03,58.15 18.09,81.48 12.06,23.53 28.2,41.62 48.42,54.45 20.23,12.83 43.56,19.25 70.01,19.25 25.67,0 48.81,-6.61 69.43,-19.84 20.61,-13.22 36.76,-31.5 48.42,-54.84 11.67,-23.53 17.5,-50.37 17.5,-80.51 0,-30.92 -5.83,-58.15 -17.5,-81.48 -11.67,-23.53 -27.81,-41.62 -48.42,-54.45 -20.61,-12.83 -43.75,-19.25 -69.43,-19.25 -26.45,0 -49.78,6.42 -70.01,19.25 -20.23,12.83 -36.37,30.92 -48.42,54.45 -12.06,23.34 -18.09,50.56 -18.09,81.48zm791.11 312.71c-52.12,0 -103.07,-8.56 -152.85,-25.67 -49.79,-17.11 -91.79,-42.4 -126.02,-75.84l64.17 -117.85c37.34,27.22 73.71,47.84 109.1,61.84 35.39,14 68.65,21.01 99.76,21.01 24.11,0 42.78,-3.7 56.01,-11.09 13.22,-7.19 19.83,-18.67 19.83,-34.03 0,-11.47 -3.89,-20.61 -11.67,-27.03 -7.78,-6.61 -19.64,-12.45 -35.59,-17.89 -15.95,-5.25 -35.59,-11.08 -58.93,-17.11 -46.67,-15.36 -85.57,-30.34 -116.68,-44.92 -31.12,-14.58 -54.45,-32.28 -70.01,-53.48 -15.56,-21 -23.34,-48.42 -23.34,-82.07 0,-40.64 10.31,-76.23 30.92,-106.38 20.61,-30.34 49.98,-53.87 88.09,-70.79 38.12,-16.92 83.63,-25.28 136.52,-25.28 42,0 83.04,6.61 123.1,19.83 40.06,13.23 77.59,35.4 112.6,66.51l-72.34 116.68c-35,-24.11 -66.12,-41.62 -93.35,-52.5 -27.22,-10.89 -53.67,-16.34 -79.34,-16.34 -13.23,0 -25.28,1.55 -36.17,4.67 -10.89,2.92 -19.64,8.17 -26.25,15.36 -6.61,7.2 -9.92,16.53 -9.92,28 0,11.47 3.31,20.61 9.92,27.62 6.61,6.81 17.12,12.64 31.51,17.69 14.39,4.86 32.48,10.89 54.26,17.7 50.56,14.58 92.57,29.17 126.02,44.15 33.45,14.78 58.54,33.25 75.26,55.04 16.73,21.59 25.09,50.56 25.09,86.34 0,61.06 -22.36,108.91 -67.09,143.72 -44.73,34.81 -105.6,52.12 -182.61,52.12z"/>
  </g>
 </g>
</svg>
